<svg width="56" height="55" viewBox="0 0 56 55" fill="none" xmlns="http://www.w3.org/2000/svg">
<g clip-path="url(#clip0_191_1640)">
<path d="M14.7296 8.67775L2.3949 24.1293C2.11821 24.476 1.96753 24.9065 1.96753 25.3501V47.0584H11.1498V38.7969C11.1498 37.7161 12.0258 36.84 13.1066 36.84H19.4113C20.492 36.84 21.3681 37.7161 21.3681 38.7969V47.0584H30.5503V25.3501C30.5503 24.9065 30.3997 24.476 30.1228 24.1293L17.7881 8.67775C17.0048 7.6964 15.5129 7.6964 14.7296 8.67775Z" fill="#F59D00"/>
<path d="M41.8638 24.1293L29.5291 8.67775C28.7458 7.6964 27.2539 7.6964 26.4706 8.67775L22.1294 14.116L30.1228 24.1293C30.3995 24.476 30.5504 24.9065 30.5504 25.3501C30.5504 27.5293 30.5504 44.8656 30.5504 47.0586C31.7409 47.0586 40.9701 47.0586 42.2914 47.0586V25.3501C42.2914 24.9065 42.1405 24.476 41.8638 24.1293Z" fill="#FFD155"/>
<path d="M53.6048 24.1293L41.2701 8.67775C40.4868 7.6964 38.9949 7.6964 38.2116 8.67775L33.8704 14.116L41.8638 24.1293C42.1405 24.476 42.2914 24.9065 42.2914 25.3501C42.2914 27.5293 42.2914 44.8656 42.2914 47.0584C43.4819 47.0584 52.7111 47.0584 54.0323 47.0584V25.3501C54.0323 24.9065 53.8815 24.476 53.6048 24.1293Z" fill="white"/>
<path d="M54.7515 23.2135L54.7517 23.2137L42.4172 7.76215C41.0445 6.04288 38.4345 6.0464 37.0645 7.76215L33.8704 11.7635L30.6763 7.76215C29.3035 6.04288 26.6935 6.0464 25.3235 7.76215L22.1294 11.7635L18.9353 7.76215C17.5626 6.04288 14.9526 6.0464 13.5826 7.76215L1.24829 23.2135C0.765737 23.8177 0.5 24.5766 0.5 25.3501V47.0586C0.5 47.8691 1.15691 48.5262 1.96762 48.5262H11.1498C11.9606 48.5262 12.6175 47.8691 12.6175 47.0586V38.7971C12.6175 38.5274 12.8368 38.3079 13.1067 38.3079H19.4114C19.6812 38.3079 19.9006 38.5274 19.9006 38.7971V47.0586C19.9006 47.8691 20.5575 48.5262 21.3682 48.5262C24.3504 48.5262 51.0459 48.5262 54.0326 48.5262C54.8433 48.5262 55.5002 47.8691 55.5002 47.0586V25.3501C55.5 24.5766 55.2343 23.8179 54.7515 23.2135ZM29.0826 45.5908H22.8356V38.7969C22.8356 36.9087 21.2993 35.3724 19.4112 35.3724H13.1067C11.2185 35.3724 9.68222 36.9087 9.68222 38.7969V45.5908H3.43524V25.3501C3.43524 25.2396 3.47301 25.1312 3.54209 25.0449L15.8766 9.59335C16.0726 9.34776 16.4452 9.34776 16.6413 9.59335L20.9821 15.0312C20.9823 15.0314 20.9823 15.0316 20.9825 15.0316L28.9762 25.0451C29.037 25.1214 29.0828 25.2356 29.0828 25.3501V45.5908H29.0826ZM31.2698 23.2137L24.0074 14.116L27.6175 9.59335C27.8136 9.34776 28.1862 9.34776 28.3823 9.59335L32.7231 15.0312C32.7233 15.0314 32.7233 15.0314 32.7235 15.0316L37.2778 20.7367L40.7169 25.0449C40.7169 25.0449 40.7169 25.0451 40.7171 25.0451C40.786 25.1313 40.824 25.2398 40.824 25.3501V45.591H32.0182V25.3501C32.0181 24.5766 31.7523 23.8179 31.2698 23.2137ZM52.5648 45.5908H43.759V25.3501C43.759 24.5737 43.4913 23.8154 43.0107 23.2137L35.7484 14.116L39.3585 9.59335C39.5546 9.34776 39.9272 9.34776 40.1232 9.59335L52.4577 25.0449C52.4577 25.0449 52.4577 25.0451 52.4579 25.0451C52.5266 25.1313 52.5648 25.2398 52.5648 25.3501V45.5908Z" fill="#E87E04"/>
</g>
<defs>
<clipPath id="clip0_191_1640">
<rect width="55" height="55" fill="white" transform="translate(0.5)"/>
</clipPath>
</defs>
</svg>
